<svg width="359" height="70" viewBox="0 0 359 70" fill="none" xmlns="http://www.w3.org/2000/svg">
<path d="M274.244 59.694C274.157 59.694 274.114 59.6507 274.114 59.564V58.29C274.114 58.2033 274.157 58.16 274.244 58.16H275.544C275.63 58.16 275.674 58.2033 275.674 58.29V59.564C275.674 59.6507 275.63 59.694 275.544 59.694H274.244ZM276.246 59.694C276.159 59.694 276.116 59.6507 276.116 59.564V58.29C276.116 58.2033 276.159 58.16 276.246 58.16H277.559C277.645 58.16 277.689 58.2033 277.689 58.29V59.564C277.689 59.6507 277.645 59.694 277.559 59.694H276.246ZM276.883 61.306V60.747C276.883 60.6603 276.926 60.617 277.013 60.617H278.599C278.685 60.617 278.729 60.6603 278.729 60.747V64.738C278.729 64.998 278.776 65.18 278.872 65.284C278.976 65.3793 279.136 65.427 279.353 65.427H279.756C280.102 65.427 280.276 65.6913 280.276 66.22C280.276 66.5233 280.232 66.7313 280.146 66.844C280.068 66.948 279.938 67 279.756 67H278.404C277.979 67 277.645 66.935 277.403 66.805C277.169 66.6663 277.013 66.4107 276.935 66.038C276.744 66.194 276.523 66.311 276.272 66.389C276.02 66.467 275.756 66.506 275.479 66.506C275.141 66.506 274.816 66.4583 274.504 66.363C274.2 66.2677 273.932 66.1203 273.698 65.921C273.464 65.7217 273.277 65.4617 273.139 65.141C273.009 64.8203 272.944 64.4303 272.944 63.971C272.944 63.451 273.017 63.022 273.165 62.684C273.321 62.3373 273.52 62.0643 273.763 61.865C274.014 61.657 274.296 61.514 274.608 61.436C274.928 61.3493 275.253 61.306 275.583 61.306H276.883ZM275.804 64.933C276.133 64.933 276.393 64.842 276.584 64.66C276.783 64.4693 276.883 64.1747 276.883 63.776V62.879H275.843C275.513 62.879 275.249 62.957 275.05 63.113C274.85 63.269 274.751 63.555 274.751 63.971C274.751 64.3263 274.85 64.5777 275.05 64.725C275.249 64.8637 275.5 64.933 275.804 64.933ZM280.514 69.665C280.428 69.665 280.384 69.6217 280.384 69.535V68.261C280.384 68.1743 280.428 68.131 280.514 68.131H281.814C281.901 68.131 281.944 68.1743 281.944 68.261V69.535C281.944 69.6217 281.901 69.665 281.814 69.665H280.514ZM282.516 69.665C282.43 69.665 282.386 69.6217 282.386 69.535V68.261C282.386 68.1743 282.43 68.131 282.516 68.131H283.829C283.916 68.131 283.959 68.1743 283.959 68.261V69.535C283.959 69.6217 283.916 69.665 283.829 69.665H282.516ZM281.333 61.657C281.333 61.5703 281.377 61.527 281.463 61.527H283.036C283.123 61.527 283.166 61.5703 283.166 61.657V64.725C283.184 64.9417 283.275 65.115 283.439 65.245C283.613 65.3663 283.851 65.427 284.154 65.427H284.453C284.627 65.427 284.757 65.4877 284.843 65.609C284.93 65.7303 284.973 65.9297 284.973 66.207C284.973 66.7357 284.8 67 284.453 67C284.124 67 283.838 66.961 283.595 66.883C283.353 66.805 283.149 66.6273 282.984 66.35C282.846 66.6273 282.638 66.805 282.36 66.883C282.092 66.961 281.719 67 281.242 67H279.903C279.73 67 279.6 66.948 279.513 66.844C279.427 66.7313 279.383 66.5277 279.383 66.233C279.383 65.9383 279.427 65.7303 279.513 65.609C279.591 65.4877 279.721 65.427 279.903 65.427H280.709C280.987 65.427 281.16 65.349 281.229 65.193C281.299 65.0283 281.333 64.751 281.333 64.361V61.657ZM285.5 61.553C285.5 61.4663 285.544 61.423 285.63 61.423H287.203C287.29 61.423 287.333 61.4663 287.333 61.553V61.943C287.732 61.7697 288.165 61.6223 288.633 61.501C289.101 61.371 289.591 61.306 290.102 61.306C291.16 61.306 291.961 61.5573 292.507 62.06C293.053 62.5627 293.326 63.3557 293.326 64.439C293.326 64.491 293.326 64.543 293.326 64.595C293.326 64.647 293.322 64.6947 293.313 64.738C293.331 64.946 293.426 65.115 293.599 65.245C293.773 65.3663 294.011 65.427 294.314 65.427H294.6C294.774 65.427 294.904 65.4877 294.99 65.609C295.077 65.7303 295.12 65.9297 295.12 66.207C295.12 66.7357 294.947 67 294.6 67C294.228 67 293.903 66.948 293.625 66.844C293.357 66.7313 293.144 66.5103 292.988 66.181C292.798 66.5103 292.52 66.7313 292.156 66.844C291.801 66.948 291.324 67 290.726 67H288.217C288.087 67 287.949 67 287.801 67C287.663 66.9913 287.528 66.9783 287.398 66.961C287.268 66.9437 287.151 66.9177 287.047 66.883C286.943 66.8483 286.87 66.7963 286.826 66.727C286.679 66.8483 286.51 66.9263 286.319 66.961C286.129 66.987 285.89 67 285.604 67H284.447C284.274 67 284.144 66.948 284.057 66.844C283.971 66.7313 283.927 66.5233 283.927 66.22C283.927 65.8907 283.966 65.6783 284.044 65.583C284.122 65.479 284.257 65.427 284.447 65.427H284.967C285.097 65.427 285.197 65.401 285.266 65.349C285.344 65.2883 285.396 65.2103 285.422 65.115C285.457 65.0197 285.479 64.9027 285.487 64.764C285.496 64.6253 285.5 64.4737 285.5 64.309V61.553ZM289.751 62.879C289.318 62.879 288.889 62.9397 288.464 63.061C288.048 63.1823 287.671 63.3167 287.333 63.464V64.92C287.333 65.0153 287.329 65.1063 287.32 65.193C287.32 65.271 287.316 65.349 287.307 65.427H289.881C290.202 65.427 290.462 65.4183 290.661 65.401C290.869 65.3837 291.03 65.3403 291.142 65.271C291.255 65.2017 291.329 65.0933 291.363 64.946C291.407 64.7987 291.428 64.595 291.428 64.335C291.428 64.101 291.402 63.893 291.35 63.711C291.298 63.529 291.207 63.3773 291.077 63.256C290.956 63.126 290.787 63.0307 290.57 62.97C290.354 62.9093 290.081 62.879 289.751 62.879ZM296.892 60.227C296.805 60.227 296.762 60.1837 296.762 60.097V58.823C296.762 58.7363 296.805 58.693 296.892 58.693H298.504C298.59 58.693 298.634 58.7363 298.634 58.823V60.097C298.634 60.1837 298.59 60.227 298.504 60.227H296.892ZM295.189 62.346C295.492 62.0427 295.834 61.7957 296.216 61.605C296.606 61.4057 297.078 61.306 297.633 61.306C298.205 61.306 298.686 61.3883 299.076 61.553C299.474 61.7177 299.795 61.9473 300.038 62.242C300.289 62.528 300.471 62.8703 300.584 63.269C300.696 63.659 300.753 64.0837 300.753 64.543V64.751C300.779 64.959 300.87 65.1237 301.026 65.245C301.19 65.3663 301.424 65.427 301.728 65.427H302.027C302.2 65.427 302.33 65.4877 302.417 65.609C302.503 65.7303 302.547 65.9297 302.547 66.207C302.547 66.7357 302.373 67 302.027 67C301.663 67 301.346 66.9523 301.078 66.857C300.809 66.753 300.588 66.5363 300.415 66.207C300.241 66.519 299.994 66.7313 299.674 66.844C299.362 66.948 298.989 67 298.556 67H294.604C294.43 67 294.3 66.9437 294.214 66.831C294.127 66.7097 294.084 66.5103 294.084 66.233C294.084 65.9557 294.123 65.752 294.201 65.622C294.279 65.492 294.413 65.427 294.604 65.427H297.828C298.036 65.427 298.205 65.414 298.335 65.388C298.465 65.3533 298.564 65.3013 298.634 65.232C298.712 65.154 298.764 65.0543 298.79 64.933C298.824 64.803 298.842 64.6427 298.842 64.452C298.842 64.2353 298.82 64.0317 298.777 63.841C298.733 63.6503 298.66 63.4857 298.556 63.347C298.452 63.1997 298.313 63.087 298.14 63.009C297.975 62.9223 297.767 62.879 297.516 62.879C297.238 62.879 296.991 62.9353 296.775 63.048C296.558 63.152 296.359 63.2863 296.177 63.451C296.116 63.5117 296.055 63.516 295.995 63.464L295.228 62.541C295.15 62.463 295.137 62.398 295.189 62.346ZM309.908 67C309.57 67 309.293 66.9393 309.076 66.818C308.868 66.688 308.708 66.519 308.595 66.311C308.474 66.5797 308.288 66.7617 308.036 66.857C307.794 66.9523 307.46 67 307.035 67H306.528C306.19 67 305.913 66.9393 305.696 66.818C305.48 66.688 305.315 66.519 305.202 66.311C305.081 66.5883 304.899 66.7747 304.656 66.87C304.414 66.9567 304.071 67 303.629 67H302.069C301.896 67 301.766 66.9523 301.679 66.857C301.593 66.753 301.549 66.558 301.549 66.272C301.549 65.9687 301.593 65.752 301.679 65.622C301.757 65.492 301.887 65.427 302.069 65.427H302.94C303.192 65.427 303.352 65.3663 303.421 65.245C303.491 65.115 303.525 64.881 303.525 64.543V62.593C303.525 62.5063 303.569 62.463 303.655 62.463H305.241C305.328 62.463 305.371 62.5063 305.371 62.593V64.725C305.371 65.0023 305.458 65.1887 305.631 65.284C305.805 65.3793 305.995 65.427 306.203 65.427C306.368 65.427 306.498 65.4097 306.593 65.375C306.697 65.3403 306.771 65.2883 306.814 65.219C306.858 65.1497 306.884 65.0587 306.892 64.946C306.91 64.8247 306.918 64.6773 306.918 64.504V62.593C306.918 62.5063 306.962 62.463 307.048 62.463H308.634C308.721 62.463 308.764 62.5063 308.764 62.593V64.712C308.764 65.0067 308.851 65.2017 309.024 65.297C309.206 65.3837 309.41 65.427 309.635 65.427C309.8 65.427 309.926 65.4097 310.012 65.375C310.099 65.3403 310.164 65.2883 310.207 65.219C310.251 65.141 310.277 65.0457 310.285 64.933C310.294 64.8117 310.298 64.6643 310.298 64.491V61.657C310.298 61.5703 310.342 61.527 310.428 61.527H312.014C312.101 61.527 312.144 61.5703 312.144 61.657V64.725C312.162 64.9417 312.253 65.115 312.417 65.245C312.591 65.3663 312.829 65.427 313.132 65.427H313.431C313.605 65.427 313.735 65.4877 313.821 65.609C313.908 65.7303 313.951 65.9297 313.951 66.207C313.951 66.7357 313.778 67 313.431 67C313.102 67 312.816 66.961 312.573 66.883C312.331 66.805 312.127 66.6273 311.962 66.35C311.841 66.6013 311.663 66.7747 311.429 66.87C311.195 66.9567 310.927 67 310.623 67H309.908ZM306.138 60.214C306.052 60.214 306.008 60.1707 306.008 60.084V58.81C306.008 58.7233 306.052 58.68 306.138 58.68H307.438C307.525 58.68 307.568 58.7233 307.568 58.81V60.084C307.568 60.1707 307.525 60.214 307.438 60.214H306.138ZM308.14 60.214C308.054 60.214 308.01 60.1707 308.01 60.084V58.81C308.01 58.7233 308.054 58.68 308.14 58.68H309.453C309.54 58.68 309.583 58.7233 309.583 58.81V60.084C309.583 60.1707 309.54 60.214 309.453 60.214H308.14ZM307.152 58.355C307.066 58.355 307.022 58.3117 307.022 58.225V56.951C307.022 56.8643 307.066 56.821 307.152 56.821H308.452C308.539 56.821 308.582 56.8643 308.582 56.951V58.225C308.582 58.3117 308.539 58.355 308.452 58.355H307.152ZM313.393 67C313.219 67 313.089 66.9697 313.003 66.909C312.916 66.8483 312.873 66.727 312.873 66.545C312.873 66.441 312.886 66.324 312.912 66.194C312.929 66.064 312.959 65.9427 313.003 65.83C313.037 65.7173 313.089 65.622 313.159 65.544C313.219 65.466 313.297 65.427 313.393 65.427H313.848C314.064 65.427 314.22 65.3793 314.316 65.284C314.42 65.18 314.472 64.998 314.472 64.738V58.29C314.472 58.2033 314.515 58.16 314.602 58.16H316.188C316.274 58.16 316.318 58.2033 316.318 58.29V65.362C316.318 65.9253 316.201 66.3413 315.967 66.61C315.733 66.87 315.343 67 314.797 67H313.393ZM319.713 66.87C319.713 66.9567 319.669 67 319.583 67H318.01C317.923 67 317.88 66.9567 317.88 66.87V58.29C317.88 58.2033 317.923 58.16 318.01 58.16H319.583C319.669 58.16 319.713 58.2033 319.713 58.29V66.87ZM332.155 58.29C332.155 58.2033 332.198 58.16 332.285 58.16H333.871C333.957 58.16 334.001 58.2033 334.001 58.29V64.725C334.018 64.9417 334.109 65.115 334.274 65.245C334.447 65.3663 334.685 65.427 334.989 65.427H335.275C335.448 65.427 335.578 65.4877 335.665 65.609C335.751 65.7303 335.795 65.9297 335.795 66.207C335.795 66.7357 335.621 67 335.275 67C334.954 67 334.672 66.961 334.43 66.883C334.187 66.805 333.983 66.6273 333.819 66.35C333.68 66.61 333.481 66.7833 333.221 66.87C332.961 66.9567 332.597 67 332.129 67H325.707C325.161 67 324.771 66.87 324.537 66.61C324.303 66.3413 324.186 65.9253 324.186 65.362V62.489C324.186 62.4023 324.229 62.359 324.316 62.359H325.902C325.988 62.359 326.032 62.4023 326.032 62.489V64.738C326.032 64.9027 326.049 65.0327 326.084 65.128C326.127 65.2147 326.188 65.284 326.266 65.336C326.352 65.3793 326.452 65.4053 326.565 65.414C326.686 65.4227 326.825 65.427 326.981 65.427H331.518C331.795 65.427 331.968 65.3533 332.038 65.206C332.116 65.05 332.155 64.777 332.155 64.387V58.29ZM329.282 61.111H329.503C329.815 61.111 330.036 61.1933 330.166 61.358C330.296 61.5227 330.361 61.7697 330.361 62.099V62.372C330.361 62.71 330.296 62.944 330.166 63.074C330.036 63.1953 329.841 63.256 329.581 63.256H327.956C327.869 63.256 327.826 63.2127 327.826 63.126V62.671C327.826 62.5843 327.869 62.541 327.956 62.541H329.243C329.364 62.541 329.438 62.5237 329.464 62.489C329.498 62.4457 329.516 62.372 329.516 62.268C329.516 62.0687 329.49 61.9473 329.438 61.904C329.386 61.852 329.269 61.826 329.087 61.826H328.359C328.237 61.826 328.177 61.7653 328.177 61.644V61.254C328.177 61.1933 328.194 61.1457 328.229 61.111C328.263 61.0763 328.289 61.046 328.307 61.02L329.269 59.876C329.312 59.8327 329.351 59.8153 329.386 59.824C329.429 59.824 329.459 59.8327 329.477 59.85C329.52 59.8847 329.572 59.9237 329.633 59.967C329.693 60.0103 329.745 60.058 329.789 60.11C329.841 60.1533 329.875 60.201 329.893 60.253C329.919 60.2963 329.914 60.344 329.88 60.396L329.282 61.111ZM335.877 60.214C335.791 60.214 335.747 60.1707 335.747 60.084V58.81C335.747 58.7233 335.791 58.68 335.877 58.68H337.177C337.264 58.68 337.307 58.7233 337.307 58.81V60.084C337.307 60.1707 337.264 60.214 337.177 60.214H335.877ZM337.879 60.214C337.793 60.214 337.749 60.1707 337.749 60.084V58.81C337.749 58.7233 337.793 58.68 337.879 58.68H339.192C339.279 58.68 339.322 58.7233 339.322 58.81V60.084C339.322 60.1707 339.279 60.214 339.192 60.214H337.879ZM335.279 67C335.106 67 334.976 66.948 334.889 66.844C334.803 66.7313 334.759 66.5363 334.759 66.259C334.759 65.7043 334.933 65.427 335.279 65.427H336.085C336.302 65.427 336.458 65.3793 336.553 65.284C336.657 65.18 336.709 64.998 336.709 64.738V61.657C336.709 61.5703 336.753 61.527 336.839 61.527H338.412C338.499 61.527 338.542 61.5703 338.542 61.657V65.362C338.542 65.9253 338.425 66.3413 338.191 66.61C337.957 66.87 337.567 67 337.021 67H335.279ZM340.211 58.29C340.211 58.2033 340.254 58.16 340.341 58.16H341.914C342 58.16 342.044 58.2033 342.044 58.29V64.738C342.044 64.998 342.091 65.18 342.187 65.284C342.291 65.3793 342.451 65.427 342.668 65.427H343.019C343.192 65.427 343.322 65.492 343.409 65.622C343.495 65.7433 343.539 65.9513 343.539 66.246C343.539 66.558 343.495 66.7617 343.409 66.857C343.331 66.9523 343.201 67 343.019 67H341.732C341.186 67 340.796 66.87 340.562 66.61C340.328 66.3413 340.211 65.9253 340.211 65.362V58.29ZM344.258 60.214C344.172 60.214 344.128 60.1707 344.128 60.084V58.81C344.128 58.7233 344.172 58.68 344.258 58.68H345.87C345.957 58.68 346 58.7233 346 58.81V60.084C346 60.1707 345.957 60.214 345.87 60.214H344.258ZM343.062 67C342.889 67 342.759 66.9697 342.672 66.909C342.586 66.8483 342.542 66.727 342.542 66.545C342.542 66.441 342.555 66.324 342.581 66.194C342.599 66.064 342.629 65.9427 342.672 65.83C342.707 65.7173 342.759 65.622 342.828 65.544C342.889 65.466 342.967 65.427 343.062 65.427H343.517C343.734 65.427 343.89 65.3793 343.985 65.284C344.089 65.18 344.141 64.998 344.141 64.738V61.657C344.141 61.5703 344.185 61.527 344.271 61.527H345.857C345.944 61.527 345.987 61.5703 345.987 61.657V65.362C345.987 65.9253 345.87 66.3413 345.636 66.61C345.402 66.87 345.012 67 344.466 67H343.062ZM347.422 58.29C347.422 58.2033 347.465 58.16 347.552 58.16H349.125C349.211 58.16 349.255 58.2033 349.255 58.29V64.738C349.255 64.998 349.302 65.18 349.398 65.284C349.502 65.3793 349.662 65.427 349.879 65.427H350.23C350.403 65.427 350.533 65.492 350.62 65.622C350.706 65.7433 350.75 65.9513 350.75 66.246C350.75 66.558 350.706 66.7617 350.62 66.857C350.542 66.9523 350.412 67 350.23 67H348.943C348.397 67 348.007 66.87 347.773 66.61C347.539 66.3413 347.422 65.9253 347.422 65.362V58.29ZM350.884 69.665C350.798 69.665 350.754 69.6217 350.754 69.535V68.261C350.754 68.1743 350.798 68.131 350.884 68.131H352.184C352.271 68.131 352.314 68.1743 352.314 68.261V69.535C352.314 69.6217 352.271 69.665 352.184 69.665H350.884ZM352.886 69.665C352.8 69.665 352.756 69.6217 352.756 69.535V68.261C352.756 68.1743 352.8 68.131 352.886 68.131H354.199C354.286 68.131 354.329 68.1743 354.329 68.261V69.535C354.329 69.6217 354.286 69.665 354.199 69.665H352.886ZM351.703 61.657C351.703 61.5703 351.747 61.527 351.833 61.527H353.406C353.493 61.527 353.536 61.5703 353.536 61.657V64.725C353.554 64.9417 353.645 65.115 353.809 65.245C353.983 65.3663 354.221 65.427 354.524 65.427H354.823C354.997 65.427 355.127 65.4877 355.213 65.609C355.3 65.7303 355.343 65.9297 355.343 66.207C355.343 66.7357 355.17 67 354.823 67C354.494 67 354.208 66.961 353.965 66.883C353.723 66.805 353.519 66.6273 353.354 66.35C353.216 66.6273 353.008 66.805 352.73 66.883C352.462 66.961 352.089 67 351.612 67H350.273C350.1 67 349.97 66.948 349.883 66.844C349.797 66.7313 349.753 66.5277 349.753 66.233C349.753 65.9383 349.797 65.7303 349.883 65.609C349.961 65.4877 350.091 65.427 350.273 65.427H351.079C351.357 65.427 351.53 65.349 351.599 65.193C351.669 65.0283 351.703 64.751 351.703 64.361V61.657ZM355.831 69.652C355.745 69.652 355.701 69.6087 355.701 69.522V68.248C355.701 68.1613 355.745 68.118 355.831 68.118H357.443C357.53 68.118 357.573 68.1613 357.573 68.248V69.522C357.573 69.6087 357.53 69.652 357.443 69.652H355.831ZM354.817 67C354.644 67 354.514 66.9697 354.427 66.909C354.341 66.8483 354.297 66.727 354.297 66.545C354.297 66.441 354.31 66.324 354.336 66.194C354.354 66.064 354.384 65.9427 354.427 65.83C354.462 65.7173 354.514 65.622 354.583 65.544C354.644 65.466 354.722 65.427 354.817 65.427H355.272C355.489 65.427 355.645 65.3793 355.74 65.284C355.844 65.18 355.896 64.998 355.896 64.738V61.657C355.896 61.5703 355.94 61.527 356.026 61.527H357.612C357.699 61.527 357.742 61.5703 357.742 61.657V65.362C357.742 65.9253 357.625 66.3413 357.391 66.61C357.157 66.87 356.767 67 356.221 67H354.817Z" fill="#51C777"/>
<path d="M156.41 66.714C156.41 67.26 156.323 67.7237 156.15 68.105C155.985 68.495 155.755 68.8113 155.461 69.054C155.166 69.3053 154.815 69.4873 154.408 69.6C154.009 69.7213 153.58 69.782 153.121 69.782C152.67 69.782 152.241 69.7213 151.834 69.6C151.435 69.4873 151.084 69.3053 150.781 69.054C150.477 68.8113 150.235 68.4907 150.053 68.092C149.879 67.702 149.793 67.234 149.793 66.688C149.793 66.2547 149.853 65.817 149.975 65.375C150.105 64.9243 150.282 64.504 150.508 64.114C150.542 64.062 150.607 64.049 150.703 64.075L152.107 64.53C152.15 64.5473 152.172 64.5733 152.172 64.608C152.18 64.634 152.176 64.6643 152.159 64.699C152.037 64.9417 151.925 65.2147 151.821 65.518C151.717 65.8213 151.665 66.1637 151.665 66.545C151.665 66.8483 151.708 67.104 151.795 67.312C151.881 67.52 151.994 67.689 152.133 67.819C152.28 67.949 152.44 68.04 152.614 68.092C152.796 68.1527 152.978 68.183 153.16 68.183C153.602 68.183 153.948 68.0573 154.2 67.806C154.451 67.5547 154.577 67.1647 154.577 66.636V58.29C154.577 58.2033 154.62 58.16 154.707 58.16H156.28C156.366 58.16 156.41 58.2033 156.41 58.29V64.725C156.427 64.9417 156.518 65.115 156.683 65.245C156.856 65.3663 157.094 65.427 157.398 65.427H157.697C157.87 65.427 158 65.4877 158.087 65.609C158.173 65.7303 158.217 65.9297 158.217 66.207C158.217 66.7357 158.043 67 157.697 67C157.419 67 157.177 66.9783 156.969 66.935C156.761 66.883 156.574 66.7703 156.41 66.597V66.714ZM158.352 69.665C158.265 69.665 158.222 69.6217 158.222 69.535V68.261C158.222 68.1743 158.265 68.131 158.352 68.131H159.652C159.738 68.131 159.782 68.1743 159.782 68.261V69.535C159.782 69.6217 159.738 69.665 159.652 69.665H158.352ZM160.354 69.665C160.267 69.665 160.224 69.6217 160.224 69.535V68.261C160.224 68.1743 160.267 68.131 160.354 68.131H161.667C161.753 68.131 161.797 68.1743 161.797 68.261V69.535C161.797 69.6217 161.753 69.665 161.667 69.665H160.354ZM159.171 61.657C159.171 61.5703 159.214 61.527 159.301 61.527H160.874C160.96 61.527 161.004 61.5703 161.004 61.657V64.725C161.021 64.9417 161.112 65.115 161.277 65.245C161.45 65.3663 161.688 65.427 161.992 65.427H162.291C162.464 65.427 162.594 65.4877 162.681 65.609C162.767 65.7303 162.811 65.9297 162.811 66.207C162.811 66.7357 162.637 67 162.291 67C161.961 67 161.675 66.961 161.433 66.883C161.19 66.805 160.986 66.6273 160.822 66.35C160.683 66.6273 160.475 66.805 160.198 66.883C159.929 66.961 159.556 67 159.08 67H157.741C157.567 67 157.437 66.948 157.351 66.844C157.264 66.7313 157.221 66.5277 157.221 66.233C157.221 65.9383 157.264 65.7303 157.351 65.609C157.429 65.4877 157.559 65.427 157.741 65.427H158.547C158.824 65.427 158.997 65.349 159.067 65.193C159.136 65.0283 159.171 64.751 159.171 64.361V61.657ZM162.87 62.346C163.173 62.0427 163.515 61.7957 163.897 61.605C164.287 61.4057 164.759 61.306 165.314 61.306C165.886 61.306 166.367 61.3883 166.757 61.553C167.155 61.7177 167.476 61.9473 167.719 62.242C167.97 62.528 168.152 62.8703 168.265 63.269C168.377 63.659 168.434 64.0837 168.434 64.543V64.751C168.46 64.959 168.551 65.1237 168.707 65.245C168.871 65.3663 169.105 65.427 169.409 65.427H169.708C169.881 65.427 170.011 65.4877 170.098 65.609C170.184 65.7303 170.228 65.9297 170.228 66.207C170.228 66.7357 170.054 67 169.708 67C169.344 67 169.027 66.9523 168.759 66.857C168.49 66.753 168.269 66.5363 168.096 66.207C167.922 66.519 167.675 66.7313 167.355 66.844C167.043 66.948 166.67 67 166.237 67H162.285C162.111 67 161.981 66.9437 161.895 66.831C161.808 66.7097 161.765 66.5103 161.765 66.233C161.765 65.9557 161.804 65.752 161.882 65.622C161.96 65.492 162.094 65.427 162.285 65.427H165.509C165.717 65.427 165.886 65.414 166.016 65.388C166.146 65.3533 166.245 65.3013 166.315 65.232C166.393 65.154 166.445 65.0543 166.471 64.933C166.505 64.803 166.523 64.6427 166.523 64.452C166.523 64.2353 166.501 64.0317 166.458 63.841C166.414 63.6503 166.341 63.4857 166.237 63.347C166.133 63.1997 165.994 63.087 165.821 63.009C165.656 62.9223 165.448 62.879 165.197 62.879C164.919 62.879 164.672 62.9353 164.456 63.048C164.239 63.152 164.04 63.2863 163.858 63.451C163.797 63.5117 163.736 63.516 163.676 63.464L162.909 62.541C162.831 62.463 162.818 62.398 162.87 62.346ZM164.625 69.639C164.538 69.639 164.495 69.5957 164.495 69.509V68.235C164.495 68.1483 164.538 68.105 164.625 68.105H166.237C166.323 68.105 166.367 68.1483 166.367 68.235V69.509C166.367 69.5957 166.323 69.639 166.237 69.639H164.625ZM177.55 67C177.212 67 176.935 66.9393 176.718 66.818C176.51 66.688 176.35 66.519 176.237 66.311C176.116 66.5797 175.93 66.7617 175.678 66.857C175.436 66.9523 175.102 67 174.677 67H174.17C173.832 67 173.555 66.9393 173.338 66.818C173.122 66.688 172.957 66.519 172.844 66.311C172.723 66.5883 172.541 66.7747 172.298 66.87C172.056 66.9567 171.713 67 171.271 67H169.711C169.538 67 169.408 66.9523 169.321 66.857C169.235 66.753 169.191 66.558 169.191 66.272C169.191 65.9687 169.235 65.752 169.321 65.622C169.399 65.492 169.529 65.427 169.711 65.427H170.582C170.834 65.427 170.994 65.3663 171.063 65.245C171.133 65.115 171.167 64.881 171.167 64.543V62.593C171.167 62.5063 171.211 62.463 171.297 62.463H172.883C172.97 62.463 173.013 62.5063 173.013 62.593V64.725C173.013 65.0023 173.1 65.1887 173.273 65.284C173.447 65.3793 173.637 65.427 173.845 65.427C174.01 65.427 174.14 65.4097 174.235 65.375C174.339 65.3403 174.413 65.2883 174.456 65.219C174.5 65.1497 174.526 65.0587 174.534 64.946C174.552 64.8247 174.56 64.6773 174.56 64.504V62.593C174.56 62.5063 174.604 62.463 174.69 62.463H176.276C176.363 62.463 176.406 62.5063 176.406 62.593V64.712C176.406 65.0067 176.493 65.2017 176.666 65.297C176.848 65.3837 177.052 65.427 177.277 65.427C177.442 65.427 177.568 65.4097 177.654 65.375C177.741 65.3403 177.806 65.2883 177.849 65.219C177.893 65.141 177.919 65.0457 177.927 64.933C177.936 64.8117 177.94 64.6643 177.94 64.491V61.657C177.94 61.5703 177.984 61.527 178.07 61.527H179.656C179.743 61.527 179.786 61.5703 179.786 61.657V64.725C179.804 64.9417 179.895 65.115 180.059 65.245C180.233 65.3663 180.471 65.427 180.774 65.427H181.073C181.247 65.427 181.377 65.4877 181.463 65.609C181.55 65.7303 181.593 65.9297 181.593 66.207C181.593 66.7357 181.42 67 181.073 67C180.744 67 180.458 66.961 180.215 66.883C179.973 66.805 179.769 66.6273 179.604 66.35C179.483 66.6013 179.305 66.7747 179.071 66.87C178.837 66.9567 178.569 67 178.265 67H177.55ZM181.789 60.214C181.702 60.214 181.659 60.1707 181.659 60.084V58.81C181.659 58.7233 181.702 58.68 181.789 58.68H183.089C183.175 58.68 183.219 58.7233 183.219 58.81V60.084C183.219 60.1707 183.175 60.214 183.089 60.214H181.789ZM183.791 60.214C183.704 60.214 183.661 60.1707 183.661 60.084V58.81C183.661 58.7233 183.704 58.68 183.791 58.68H185.104C185.19 58.68 185.234 58.7233 185.234 58.81V60.084C185.234 60.1707 185.19 60.214 185.104 60.214H183.791ZM182.543 61.657C182.543 61.5703 182.586 61.527 182.673 61.527H184.246C184.332 61.527 184.376 61.5703 184.376 61.657V64.725C184.393 64.9417 184.484 65.115 184.649 65.245C184.822 65.3663 185.06 65.427 185.364 65.427H185.663C185.836 65.427 185.966 65.4877 186.053 65.609C186.139 65.7303 186.183 65.9297 186.183 66.207C186.183 66.7357 186.009 67 185.663 67C185.333 67 185.047 66.961 184.805 66.883C184.562 66.805 184.358 66.6273 184.194 66.35C184.055 66.6273 183.847 66.805 183.57 66.883C183.301 66.961 182.928 67 182.452 67H181.113C180.939 67 180.809 66.948 180.723 66.844C180.636 66.7313 180.593 66.5277 180.593 66.233C180.593 65.9383 180.636 65.7303 180.723 65.609C180.801 65.4877 180.931 65.427 181.113 65.427H181.919C182.196 65.427 182.369 65.349 182.439 65.193C182.508 65.0283 182.543 64.751 182.543 64.361V61.657ZM185.657 67C185.483 67 185.353 66.9697 185.267 66.909C185.18 66.8483 185.137 66.727 185.137 66.545C185.137 66.441 185.15 66.324 185.176 66.194C185.193 66.064 185.223 65.9427 185.267 65.83C185.301 65.7173 185.353 65.622 185.423 65.544C185.483 65.466 185.561 65.427 185.657 65.427H186.112C186.328 65.427 186.484 65.3793 186.58 65.284C186.684 65.18 186.736 64.998 186.736 64.738V58.29C186.736 58.2033 186.779 58.16 186.866 58.16H188.452C188.538 58.16 188.582 58.2033 188.582 58.29V65.362C188.582 65.9253 188.465 66.3413 188.231 66.61C187.997 66.87 187.607 67 187.061 67H185.657ZM191.977 66.87C191.977 66.9567 191.933 67 191.847 67H190.274C190.187 67 190.144 66.9567 190.144 66.87V58.29C190.144 58.2033 190.187 58.16 190.274 58.16H191.847C191.933 58.16 191.977 58.2033 191.977 58.29V66.87Z" fill="#51C777"/>
<rect x="7.54167" y="0.541667" width="43.9167" height="43.9167" rx="21.7883" stroke="#293056" stroke-width="1.08333"/>
<path d="M24.4375 13.5C21.0203 13.5 18.25 16.2703 18.25 19.6875C18.25 25.875 25.5625 31.5 29.5 32.8084C33.4375 31.5 40.75 25.875 40.75 19.6875C40.75 16.2703 37.9797 13.5 34.5625 13.5C32.47 13.5 30.6194 14.5389 29.5 16.1291C28.9294 15.3164 28.1715 14.6532 27.2902 14.1955C26.409 13.7379 25.4305 13.4993 24.4375 13.5Z" stroke="#293056" stroke-width="1.5" stroke-linecap="round" stroke-linejoin="round"/>
<path d="M8.38318 65.427C8.60852 65.427 8.76885 65.3793 8.86418 65.284C8.96818 65.18 9.02018 64.998 9.02018 64.738V61.657C9.02018 61.5703 9.06352 61.527 9.15018 61.527H10.7362C10.8229 61.527 10.8662 61.5703 10.8662 61.657V65.362C10.8662 65.9253 10.7492 66.3413 10.5152 66.61C10.2812 66.87 9.88252 67 9.31918 67H2.57218C2.02618 67 1.63618 66.87 1.40218 66.61C1.16818 66.3413 1.05118 65.9253 1.05118 65.362V62.489C1.05118 62.4023 1.09452 62.359 1.18118 62.359H2.76718C2.85385 62.359 2.89718 62.4023 2.89718 62.489V64.738C2.89718 64.998 2.94485 65.18 3.04018 65.284C3.14418 65.3793 3.30452 65.427 3.52118 65.427H8.38318ZM4.28818 60.981C4.20152 60.981 4.15818 60.9377 4.15818 60.851V59.577C4.15818 59.4903 4.20152 59.447 4.28818 59.447H5.58818C5.67485 59.447 5.71818 59.4903 5.71818 59.577V60.851C5.71818 60.9377 5.67485 60.981 5.58818 60.981H4.28818ZM6.29018 60.981C6.20352 60.981 6.16018 60.9377 6.16018 60.851V59.577C6.16018 59.4903 6.20352 59.447 6.29018 59.447H7.60318C7.68985 59.447 7.73318 59.4903 7.73318 59.577V60.851C7.73318 60.9377 7.68985 60.981 7.60318 60.981H6.29018ZM12.302 58.29C12.302 58.2033 12.3453 58.16 12.432 58.16H14.005C14.0916 58.16 14.135 58.2033 14.135 58.29V64.738C14.135 64.998 14.1826 65.18 14.278 65.284C14.382 65.3793 14.5423 65.427 14.759 65.427H15.11C15.2833 65.427 15.4133 65.492 15.5 65.622C15.5866 65.7433 15.63 65.9513 15.63 66.246C15.63 66.558 15.5866 66.7617 15.5 66.857C15.422 66.9523 15.292 67 15.11 67H13.823C13.277 67 12.887 66.87 12.653 66.61C12.419 66.3413 12.302 65.9253 12.302 65.362V58.29ZM19.1577 67.091C18.6984 67.091 18.2737 67.0347 17.8837 66.922C17.5024 66.8007 17.1817 66.5927 16.9217 66.298C16.8004 66.4713 16.6574 66.6057 16.4927 66.701C16.3367 66.7877 16.1764 66.857 16.0117 66.909C15.8471 66.9523 15.6867 66.9783 15.5307 66.987C15.3747 66.9957 15.2361 67 15.1147 67C14.9414 67 14.8114 66.9437 14.7247 66.831C14.6381 66.7183 14.5947 66.519 14.5947 66.233C14.5947 65.9297 14.6381 65.7217 14.7247 65.609C14.8027 65.4877 14.9327 65.427 15.1147 65.427H15.4917C15.6824 65.427 15.8601 65.3447 16.0247 65.18C16.1894 65.0153 16.2804 64.7077 16.2977 64.257V63.997C16.2977 63.4857 16.3757 63.0567 16.5317 62.71C16.6964 62.3633 16.9087 62.086 17.1687 61.878C17.4374 61.67 17.7407 61.5227 18.0787 61.436C18.4254 61.3493 18.7851 61.306 19.1577 61.306C19.5391 61.306 19.9031 61.3537 20.2497 61.449C20.5964 61.5443 20.8997 61.7047 21.1597 61.93C21.4284 62.1553 21.6407 62.4587 21.7967 62.84C21.9527 63.2127 22.0307 63.685 22.0307 64.257C22.0307 64.7857 21.9571 65.232 21.8097 65.596C21.6624 65.96 21.4587 66.2547 21.1987 66.48C20.9474 66.6967 20.6441 66.8527 20.2887 66.948C19.9421 67.0433 19.5651 67.091 19.1577 67.091ZM19.1577 62.879C18.4384 62.879 18.0787 63.3167 18.0787 64.192C18.0787 64.686 18.1697 65.0327 18.3517 65.232C18.5337 65.4227 18.8024 65.518 19.1577 65.518C19.5217 65.518 19.7904 65.4227 19.9637 65.232C20.1371 65.0327 20.2237 64.686 20.2237 64.192C20.2237 63.3167 19.8684 62.879 19.1577 62.879ZM23.4231 58.29C23.4231 58.2033 23.4664 58.16 23.5531 58.16H25.1261C25.2127 58.16 25.2561 58.2033 25.2561 58.29V64.738C25.2561 64.998 25.3037 65.18 25.3991 65.284C25.5031 65.3793 25.6634 65.427 25.8801 65.427H26.2311C26.4044 65.427 26.5344 65.492 26.6211 65.622C26.7077 65.7433 26.7511 65.9513 26.7511 66.246C26.7511 66.558 26.7077 66.7617 26.6211 66.857C26.5431 66.9523 26.4131 67 26.2311 67H24.9441C24.3981 67 24.0081 66.87 23.7741 66.61C23.5401 66.3413 23.4231 65.9253 23.4231 65.362V58.29ZM30.2788 67.091C29.8195 67.091 29.3948 67.0347 29.0048 66.922C28.6235 66.8007 28.3028 66.5927 28.0428 66.298C27.9475 66.454 27.8218 66.5797 27.6658 66.675C27.5098 66.7703 27.3452 66.844 27.1718 66.896C27.0072 66.9393 26.8425 66.9697 26.6778 66.987C26.5132 66.9957 26.3658 67 26.2358 67C26.0625 67 25.9325 66.9437 25.8458 66.831C25.7592 66.7183 25.7158 66.519 25.7158 66.233C25.7158 65.9383 25.7548 65.7303 25.8328 65.609C25.9108 65.4877 26.0452 65.427 26.2358 65.427H26.6128C26.8122 65.427 26.9898 65.3447 27.1458 65.18C27.3105 65.0153 27.4015 64.7077 27.4188 64.257V63.997C27.4188 63.1303 27.6658 62.4673 28.1598 62.008C28.6538 61.54 29.3602 61.306 30.2788 61.306C31.1542 61.306 31.8518 61.553 32.3718 62.047C32.8918 62.5323 33.1518 63.269 33.1518 64.257C33.1518 64.3177 33.1475 64.3783 33.1388 64.439C33.1388 64.491 33.1388 64.543 33.1388 64.595C33.1562 64.881 33.2385 65.0933 33.3858 65.232C33.5332 65.362 33.7195 65.427 33.9448 65.427H34.3218C34.4952 65.427 34.6252 65.4877 34.7118 65.609C34.7985 65.7303 34.8418 65.9297 34.8418 66.207C34.8418 66.7357 34.6685 67 34.3218 67C34.1658 67 34.0055 66.9957 33.8408 66.987C33.6762 66.9697 33.5158 66.935 33.3598 66.883C33.2038 66.831 33.0565 66.7573 32.9178 66.662C32.7792 66.558 32.6578 66.4193 32.5538 66.246C32.2938 66.558 31.9645 66.779 31.5658 66.909C31.1758 67.0303 30.7468 67.091 30.2788 67.091ZM30.2788 62.879C29.5682 62.879 29.2128 63.3167 29.2128 64.192C29.2128 64.686 29.2995 65.0327 29.4728 65.232C29.6548 65.4227 29.9235 65.518 30.2788 65.518C30.6428 65.518 30.9115 65.4227 31.0848 65.232C31.2582 65.0327 31.3448 64.686 31.3448 64.192C31.3448 63.3167 30.9895 62.879 30.2788 62.879ZM35.0251 60.214C34.9384 60.214 34.8951 60.1707 34.8951 60.084V58.81C34.8951 58.7233 34.9384 58.68 35.0251 58.68H36.3251C36.4117 58.68 36.4551 58.7233 36.4551 58.81V60.084C36.4551 60.1707 36.4117 60.214 36.3251 60.214H35.0251ZM37.0271 60.214C36.9404 60.214 36.8971 60.1707 36.8971 60.084V58.81C36.8971 58.7233 36.9404 58.68 37.0271 58.68H38.3401C38.4267 58.68 38.4701 58.7233 38.4701 58.81V60.084C38.4701 60.1707 38.4267 60.214 38.3401 60.214H37.0271ZM35.7791 61.657C35.7791 61.5703 35.8224 61.527 35.9091 61.527H37.4821C37.5687 61.527 37.6121 61.5703 37.6121 61.657V64.725C37.6294 64.9417 37.7204 65.115 37.8851 65.245C38.0584 65.3663 38.2967 65.427 38.6001 65.427H38.8991C39.0724 65.427 39.2024 65.4877 39.2891 65.609C39.3757 65.7303 39.4191 65.9297 39.4191 66.207C39.4191 66.7357 39.2457 67 38.8991 67C38.5697 67 38.2837 66.961 38.0411 66.883C37.7984 66.805 37.5947 66.6273 37.4301 66.35C37.2914 66.6273 37.0834 66.805 36.8061 66.883C36.5374 66.961 36.1647 67 35.6881 67H34.3491C34.1757 67 34.0457 66.948 33.9591 66.844C33.8724 66.7313 33.8291 66.5277 33.8291 66.233C33.8291 65.9383 33.8724 65.7303 33.9591 65.609C34.0371 65.4877 34.1671 65.427 34.3491 65.427H35.1551C35.4324 65.427 35.6057 65.349 35.6751 65.193C35.7444 65.0283 35.7791 64.751 35.7791 64.361V61.657ZM38.8931 67C38.7197 67 38.5897 66.9437 38.5031 66.831C38.4164 66.7097 38.3731 66.5103 38.3731 66.233C38.3731 65.947 38.4164 65.7433 38.5031 65.622C38.5811 65.492 38.7111 65.427 38.8931 65.427H40.1671C40.0457 65.167 39.9851 64.8637 39.9851 64.517C39.9851 64.1617 40.0414 63.8583 40.1541 63.607C40.2754 63.3557 40.4271 63.152 40.6091 62.996C40.7997 62.84 41.0164 62.7273 41.2591 62.658C41.5017 62.58 41.7531 62.541 42.0131 62.541C42.6631 62.541 43.1744 62.7013 43.5471 63.022C43.9197 63.334 44.1061 63.8323 44.1061 64.517C44.1061 64.699 44.0801 64.868 44.0281 65.024C43.9847 65.1713 43.9327 65.3057 43.8721 65.427C44.2621 65.427 44.5221 65.31 44.6521 65.076C44.7821 64.8333 44.8471 64.5387 44.8471 64.192C44.8471 63.854 44.7907 63.5637 44.6781 63.321C44.5741 63.0783 44.4224 62.879 44.2231 62.723C44.0324 62.567 43.7984 62.4543 43.5211 62.385C43.2524 62.307 42.9534 62.268 42.6241 62.268C42.3294 62.268 42.0174 62.294 41.6881 62.346C41.3674 62.3893 41.0511 62.4587 40.7391 62.554C40.7044 62.5713 40.6611 62.5843 40.6091 62.593C40.5571 62.6017 40.5224 62.58 40.5051 62.528L40.2321 61.553C40.2147 61.501 40.2061 61.4577 40.2061 61.423C40.2147 61.3797 40.2494 61.345 40.3101 61.319C40.7347 61.1543 41.1507 61.0243 41.5581 60.929C41.9741 60.8337 42.4637 60.786 43.0271 60.786C43.7551 60.786 44.3574 60.8857 44.8341 61.085C45.3194 61.2757 45.7007 61.5313 45.9781 61.852C46.2641 62.1727 46.4634 62.5323 46.5761 62.931C46.6887 63.3297 46.7451 63.737 46.7451 64.153C46.7451 64.6383 46.7017 65.063 46.6151 65.427C46.5284 65.7823 46.3811 66.077 46.1731 66.311C45.9737 66.545 45.7051 66.7183 45.3671 66.831C45.0377 66.9437 44.6261 67 44.1321 67H38.8931ZM42.0261 63.646C41.7834 63.646 41.5927 63.7283 41.4541 63.893C41.3241 64.049 41.2591 64.2743 41.2591 64.569C41.2591 64.8723 41.3197 65.0977 41.4411 65.245C41.5624 65.3837 41.7314 65.4617 41.9481 65.479H42.0911C42.3164 65.4617 42.4854 65.3837 42.5981 65.245C42.7107 65.0977 42.7671 64.8723 42.7671 64.569C42.7671 64.2743 42.7021 64.049 42.5721 63.893C42.4507 63.7283 42.2687 63.646 42.0261 63.646ZM51.7938 65.427H52.9768C53.1935 65.427 53.3495 65.3793 53.4448 65.284C53.5488 65.18 53.6008 64.998 53.6008 64.738V58.29C53.6008 58.2033 53.6442 58.16 53.7308 58.16H55.3168C55.4035 58.16 55.4468 58.2033 55.4468 58.29V65.362C55.4468 65.9253 55.3298 66.3413 55.0958 66.61C54.8618 66.87 54.4718 67 53.9258 67H47.8808C47.7942 67 47.7508 66.9567 47.7508 66.87V65.557C47.7508 65.4703 47.7942 65.427 47.8808 65.427H49.9478V60.123C49.9478 60.0363 49.9912 59.993 50.0778 59.993H51.6638C51.7505 59.993 51.7938 60.0363 51.7938 60.123V65.427ZM58.8352 66.87C58.8352 66.9567 58.7918 67 58.7052 67H57.1322C57.0455 67 57.0022 66.9567 57.0022 66.87V58.29C57.0022 58.2033 57.0455 58.16 57.1322 58.16H58.7052C58.7918 58.16 58.8352 58.2033 58.8352 58.29V66.87Z" fill="#293056"/>
<rect x="148" width="45" height="45" rx="22.33" fill="#51C777"/>
<path d="M169.119 32.1667H180.167M177.405 16.9762L178.786 18.3571M179.476 13.5238C179.748 13.7958 179.964 14.1187 180.111 14.4742C180.259 14.8296 180.334 15.2105 180.334 15.5952C180.334 15.98 180.259 16.3609 180.111 16.7163C179.964 17.0717 179.748 17.3947 179.476 17.6667L166.357 30.7857L160.833 32.1667L162.214 26.7202L175.339 13.5293C175.856 13.0095 176.55 12.7032 177.283 12.6712C178.015 12.6392 178.733 12.8839 179.294 13.3567L179.476 13.5238Z" stroke="white" stroke-linecap="round" stroke-linejoin="round"/>
<g filter="url(#filter0_d_71_7154)">
<rect x="293" width="45" height="45" rx="22.33" fill="#51C777"/>
<path fill-rule="evenodd" clip-rule="evenodd" d="M315.5 9.51042C313.978 9.51042 312.518 10.1151 311.441 11.1915C310.365 12.2679 309.76 13.7278 309.76 15.25C309.76 16.7722 310.365 18.2321 311.441 19.3085C312.518 20.3849 313.978 20.9896 315.5 20.9896C317.022 20.9896 318.482 20.3849 319.558 19.3085C320.635 18.2321 321.24 16.7722 321.24 15.25C321.24 13.7278 320.635 12.2679 319.558 11.1915C318.482 10.1151 317.022 9.51042 315.5 9.51042ZM311.573 15.25C311.573 14.2085 311.987 13.2096 312.723 12.4731C313.46 11.7367 314.458 11.3229 315.5 11.3229C316.542 11.3229 317.54 11.7367 318.277 12.4731C319.013 13.2096 319.427 14.2085 319.427 15.25C319.427 16.2915 319.013 17.2904 318.277 18.0269C317.54 18.7633 316.542 19.1771 315.5 19.1771C314.458 19.1771 313.46 18.7633 312.723 18.0269C311.987 17.2904 311.573 16.2915 311.573 15.25ZM315.5 22.8021C312.705 22.8021 310.129 23.4377 308.221 24.5107C306.341 25.5692 304.927 27.1714 304.927 29.1458V29.2691C304.926 30.6732 304.925 32.4349 306.47 33.694C307.23 34.3127 308.295 34.7537 309.733 35.0437C311.173 35.3361 313.052 35.4896 315.5 35.4896C317.948 35.4896 319.826 35.3361 321.269 35.0437C322.706 34.7537 323.77 34.3127 324.531 33.694C326.077 32.4349 326.074 30.6732 326.073 29.2691V29.1458C326.073 27.1714 324.659 25.5692 322.78 24.5107C320.871 23.4377 318.296 22.8021 315.5 22.8021ZM306.74 29.1458C306.74 28.1175 307.491 27.001 309.109 26.0912C310.699 25.197 312.956 24.6146 315.501 24.6146C318.044 24.6146 320.301 25.197 321.891 26.0912C323.51 27.001 324.26 28.1175 324.26 29.1458C324.26 30.7263 324.212 31.6157 323.386 32.2875C322.938 32.6524 322.189 33.0089 320.908 33.2675C319.631 33.526 317.885 33.6771 315.5 33.6771C313.115 33.6771 311.367 33.526 310.091 33.2675C308.811 33.0089 308.061 32.6524 307.614 32.2887C306.788 31.6157 306.74 30.7263 306.74 29.1458Z" fill="white"/>
</g>
<path d="M192 23H292" stroke="#293056"/>
<path d="M51 23H147.5" stroke="#293056"/>
<defs>
<filter id="filter0_d_71_7154" x="289" y="0" width="53" height="53" filterUnits="userSpaceOnUse" color-interpolation-filters="sRGB">
<feFlood flood-opacity="0" result="BackgroundImageFix"/>
<feColorMatrix in="SourceAlpha" type="matrix" values="0 0 0 0 0 0 0 0 0 0 0 0 0 0 0 0 0 0 127 0" result="hardAlpha"/>
<feOffset dy="4"/>
<feGaussianBlur stdDeviation="2"/>
<feComposite in2="hardAlpha" operator="out"/>
<feColorMatrix type="matrix" values="0 0 0 0 0 0 0 0 0 0 0 0 0 0 0 0 0 0 0.25 0"/>
<feBlend mode="normal" in2="BackgroundImageFix" result="effect1_dropShadow_71_7154"/>
<feBlend mode="normal" in="SourceGraphic" in2="effect1_dropShadow_71_7154" result="shape"/>
</filter>
</defs>
</svg>
