<svg width="45" height="45" viewBox="0 0 45 45" fill="none" xmlns="http://www.w3.org/2000/svg">
<rect x="0.541667" y="0.541667" width="43.9167" height="43.9167" rx="21.7883" stroke="#293056" stroke-width="1.08333"/>
<path d="M21.1191 32.1667H32.1667M29.4048 16.9762L30.7858 18.3571M31.4762 13.5238C31.7483 13.7958 31.9641 14.1187 32.1114 14.4742C32.2586 14.8296 32.3344 15.2105 32.3344 15.5952C32.3344 15.98 32.2586 16.3609 32.1114 16.7163C31.9641 17.0717 31.7483 17.3947 31.4762 17.6667L18.3572 30.7857L12.8334 32.1667L14.2143 26.7202L27.3389 13.5293C27.8562 13.0095 28.5501 12.7032 29.2827 12.6712C30.0154 12.6392 30.7333 12.8839 31.2939 13.3567L31.4762 13.5238Z" stroke="#293056" stroke-linecap="round" stroke-linejoin="round"/>
</svg>
