<svg width="45" height="132" viewBox="0 0 45 132" fill="none" xmlns="http://www.w3.org/2000/svg">
<g id="knzarablogo" clip-path="url(#clip0_1_1889)">
<path id="Vector" d="M17.2675 50.3719H9.65649V3.23276C9.65649 1.44968 11.0799 0 12.8326 0C15.2806 0 17.2638 2.1352 17.2638 4.77235V50.3719H17.2675Z" fill="#293056"/>
<path id="Vector_2" d="M13.1876 94.9712C13.1876 94.9712 9.65283 95.2859 9.65283 90.9406V49.8924L17.165 50.8439L17.2785 94.9712H13.1876Z" fill="url(#paint0_linear_1_1889)"/>
<path id="Vector_3" d="M45 81.6169V109.948H0V102.16H37.1146V81.6169C37.1146 76.2414 35.9436 71.9299 33.6421 68.787C31.3075 65.6104 28.2997 63.1493 24.7065 61.4674C21.4645 59.9503 17.8858 58.8677 14.084 58.2496C13.6486 58.1747 13.1692 58.1035 12.624 58.0361C10.0992 57.7065 7.54879 57.4405 5.04228 57.2569C3.5274 57.1408 0.00365913 57.0996 0.00365913 57.0996V52.4396C0.00365913 48.8211 1.45633 45.3598 4.01773 42.865L34.3483 13.3656C36.9645 10.8221 41.0737 10.8408 43.6681 13.4068L44.5646 14.2946L8.2367 49.7238C8.31721 49.7313 8.39771 49.7388 8.47821 49.7426C12.2069 50.0722 16.016 50.679 19.8032 51.5444C24.443 52.6082 28.673 54.3276 32.376 56.6501C36.1193 59.0063 39.1966 62.2428 41.5055 66.2735C42.6655 68.2963 43.5363 70.5963 44.1181 73.1585C44.7036 75.7208 45 78.5415 45 81.6094V81.6169Z" fill="#293056"/>
<path id="Vector_4" d="M15.4562 47.0829H7.84521V94.9712H15.4562V47.0829Z" fill="#293056"/>
<path id="Vector_5" d="M43.4156 80.0661V108.397H0V100.609H35.8046V80.0661C35.8046 74.6906 34.6776 70.379 32.4565 67.2362C30.2025 64.0596 27.3044 61.5985 23.8356 59.9166C20.707 58.3994 17.2565 57.3169 13.5864 56.6988C13.1656 56.6239 12.7045 56.5527 12.1776 56.4853C9.74061 56.1556 7.28167 55.8897 4.86299 55.7061C3.40299 55.59 0 55.5488 0 55.5488V50.6715C0 47.1841 1.36852 43.8427 3.79452 41.3966L32.2626 12.6988C35.2448 9.69078 40.0382 9.71325 42.9948 12.7475L7.94763 48.1767C8.02448 48.1842 8.10132 48.1917 8.18182 48.1955C11.7787 48.5251 15.4562 49.132 19.108 49.9973C23.5868 51.0611 27.6667 52.7805 31.238 55.103C34.8496 57.4592 37.8171 60.6957 40.0455 64.7264C41.1652 66.7492 42.0032 69.0492 42.5667 71.6114C43.1338 74.1737 43.4156 76.9944 43.4156 80.0623V80.0661Z" fill="#293056"/>
<path id="Vector_6" d="M0 120.196V112.405H45V117.005C45 118.766 43.5546 120.196 41.769 120.196H0Z" fill="#FFCC00"/>
<path id="Vector_7" d="M0 132V124.208H45V128.808C45 130.569 43.5546 132 41.769 132H0Z" fill="#51C777"/>
<path id="Vector_8" d="M11.647 0.00375366C13.751 0.00375366 15.4599 1.50214 15.4599 4.10558V49.2219L7.94766 48.173L7.83423 4.08685C7.84155 1.49464 9.5467 0.00375366 11.647 0.00375366Z" fill="url(#paint1_linear_1_1889)"/>
</g>
<defs>
<linearGradient id="paint0_linear_1_1889" x1="13.4693" y1="94.9787" x2="13.4693" y2="49.8924" gradientUnits="userSpaceOnUse">
<stop offset="0.66" stop-color="#51C777"/>
<stop offset="1" stop-color="#2A884B"/>
</linearGradient>
<linearGradient id="paint1_linear_1_1889" x1="11.647" y1="0.00375366" x2="11.647" y2="49.2219" gradientUnits="userSpaceOnUse">
<stop offset="0.66" stop-color="#51C777"/>
<stop offset="1" stop-color="#2A884B"/>
</linearGradient>
<clipPath id="clip0_1_1889">
<rect width="45" height="132" fill="white"/>
</clipPath>
</defs>
</svg>
